#!OML:ASF I:\Actors\actors\Patient Classification 2\Patient 1\Session 1\actor1.ASF
:FULLY-SPECIFIED
:DEGREES
660
root -0.0269433 13.5876 6.58882 19.1522 4.32693 0.882731
lowerback 46.0561 0.190857 -2.24051
upperback 16.6799 -0.41904 1.48384
thorax -2.39003 -0.366734 2.86613
lowerneck -10.1925 -1.60258 -4.9381
upperneck 38.3484 -1.78919 2.32153
head 15.161 -1.11569 1.60301
rclavicle 6.06293e-015 -1.16538e-014
rhumerus 19.2127 10.2202 -75.047
rradius 45.8318
rwrist -4.07542
rhand -14.6229 -40.4855
rfingers 7.12502
rthumb 11.5285 -70.1485
lclavicle 6.06293e-015 -1.16538e-014
lhumerus 20.275 -9.86077 78.165
lradius 48.3993
lwrist 19.7116
lhand -20.1924 -32.6076
lfingers 7.12502
lthumb 6.15404 -2.71702
rfemur -74.8174 -10.3418 21.5807
rtibia 108.003
rfoot -31.6993 10.5199
rtoes -20.3843
lfemur -79.9953 4.714 -24.8224
ltibia 104.087
lfoot -28.7961 -15.9521
ltoes -48.4664
661
root -0.0423182 13.3996 6.60889 19.0867 4.22057 0.926483
lowerback 46.7067 0.248044 -2.28919
upperback 16.675 -0.361379 1.76458
thorax -2.55049 -0.36056 3.16949
lowerneck -9.66446 -1.65757 -5.96045
upperneck 38.1499 -1.64082 2.36155
head 14.9524 -1.18381 1.82595
rclavicle 1.33186e-014 -2.32827e-014
rhumerus 19.7532 10.8087 -74.0475
rradius 46.0849
rwrist -3.69979
rhand -14.0931 -40.5219
rfingers 7.12502
rthumb 12.0394 -70.1556
lclavicle 1.33186e-014 -2.32827e-014
lhumerus 20.7004 -10.851 77.1948
lradius 48.5576
lwrist 18.7452
lhand -19.1686 -31.9387
lfingers 7.12502
lthumb 7.14244 -2.07924
rfemur -75.9115 -10.22 21.6543
rtibia 110.03
rfoot -31.9502 10.4238
rtoes -18.9558
lfemur -81.1735 5.27339 -25.097
ltibia 106.028
lfoot -28.8481 -16.1126
ltoes -48.8092
662
root -0.0582969 13.203 6.62298 19.0789 4.34365 1.07707
lowerback 47.2254 0.139224 -2.20632
upperback 16.7674 -0.448633 1.82099
thorax -2.55924 -0.401268 3.22234
lowerneck -9.82568 -1.7839 -5.93315
upperneck 38.2497 -1.61111 1.81232
head 15.0367 -1.23139 1.59725
rclavicle -8.94531e-015 1.04113e-014
rhumerus 20.4553 11.0081 -73.6192
rradius 46.2365
rwrist -2.85454
rhand -13.2706 -40.6013
rfingers 7.12502
rthumb 12.8323 -70.1869
lclavicle -8.94531e-015 1.04113e-014
lhumerus 21.4196 -11.9886 75.7477
lradius 48.6445
lwrist 17.7703
lhand -18.2645 -31.5675
lfingers 7.12502
lthumb 8.01501 -1.73945
rfemur -77.1483 -10.5534 21.8533
rtibia 112.123
rfoot -32.2807 10.0666
rtoes -19.0558
lfemur -82.4691 5.53208 -25.4028
ltibia 107.985
lfoot -28.7244 -16.4044
ltoes -48.8369
663
root -0.0749322 13.0025 6.64099 19.046 4.34977 1.17933
lowerback 48.6084 0.100814 -2.13656
upperback 15.9931 -0.503601 1.79217
thorax -2.50813 -0.42562 3.09558
lowerneck -10.0666 -1.83877 -5.80081
upperneck 38.2951 -1.64074 1.63663
head 15.1143 -1.2458 1.49518
rclavicle 4.57205e-015 -3.73964e-015
rhumerus 21.1498 11.2634 -73.3947
rradius 46.369
rwrist -2.59904
rhand -14.3782 -40.3479
rfingers 7.12502
rthumb 11.7644 -69.9975
lclavicle 4.57205e-015 -3.73964e-015
lhumerus 22.2774 -13.2238 74.0154
lradius 48.7012
lwrist 16.8698
lhand -17.2588 -30.8637
lfingers 7.12502
lthumb 8.98558 -1.07502
rfemur -78.3999 -10.9931 22.1248
rtibia 114.271
rfoot -32.4832 9.96047
rtoes -19.2097
lfemur -83.7411 5.96088 -25.6277
ltibia 109.977
lfoot -28.5453 -16.9952
ltoes -48.6788
664
root -0.0917371 12.7996 6.64842 18.9954 4.64167 1.33753
lowerback 49.1498 -0.144322 -1.9122
upperback 16.0273 -0.688884 1.70898
thorax -2.53695 -0.493 2.97041
lowerneck -10.0952 -1.79732 -5.92256
upperneck 38.2872 -1.64959 1.91645
head 15.1208 -1.23249 1.63321
rclavicle 5.76476e-015 5.34234e-015
rhumerus 21.6063 11.7458 -73.1041
rradius 46.6253
rwrist -3.03703
rhand -17.2632 -39.5329
rfingers 7.12502
rthumb 8.98139 -69.3217
lclavicle 5.76476e-015 5.34234e-015
lhumerus 23.0059 -14.509 72.262
lradius 48.8208
lwrist 16.1063
lhand -16.361 -30.4412
lfingers 7.12502
lthumb 9.85192 -0.691696
rfemur -79.7056 -11.7882 22.3457
rtibia 116.435
rfoot -32.5281 10.1211
rtoes -18.8135
lfemur -85.0943 6.05024 -25.7944
ltibia 111.955
lfoot -28.1764 -17.5251
ltoes -48.6296
665
root -0.107869 12.598 6.66081 18.9445 4.67726 1.41601
lowerback 49.5378 -0.24533 -1.80906
upperback 16.0757 -0.770242 1.58845
thorax -2.53152 -0.517102 2.82382
lowerneck -9.87925 -1.72777 -6.28818
upperneck 38.0993 -1.69446 2.5316
head 14.989 -1.22556 1.94806
rclavicle -1.08338e-014 2.85008e-014
rhumerus 21.9064 12.1342 -72.8974
rradius 46.9572
rwrist -2.98364
rhand -17.2608 -39.2166
rfingers 7.12502
rthumb 8.98371 -69.0053
lclavicle -1.08338e-014 2.85008e-014
lhumerus 23.685 -15.707 70.625
lradius 48.9516
lwrist 15.3387
lhand -15.993 -31.1113
lfingers 7.12502
lthumb 10.2069 -1.3789
rfemur -80.9523 -12.1396 22.4965
rtibia 118.52
rfoot -32.6935 10.0657
rtoes -19.0585
lfemur -86.4754 6.40187 -25.9244
ltibia 113.948
lfoot -27.8096 -17.8613
ltoes -48.9323
666
root -0.123515 12.4003 6.67001 18.8468 4.69291 1.53615
lowerback 49.936 -0.350722 -1.7285
upperback 16.1257 -0.868207 1.43758
thorax -2.52326 -0.547165 2.66171
lowerneck -9.46717 -1.64058 -6.87499
upperneck 37.7391 -1.78238 3.45365
head 14.7372 -1.2286 2.4188
rclavicle 1.66979e-014 -8.68441e-015
rhumerus 22.2133 12.3182 -72.9133
rradius 47.2027
rwrist -2.33936
rhand -14.0723 -39.8927
rfingers 7.12502
rthumb 12.0594 -69.5253
lclavicle 1.66979e-014 -8.68441e-015
lhumerus 24.3127 -16.7905 69.1441
lradius 49.1652
lwrist 14.4564
lhand -15.7595 -31.6882
lfingers 7.12502
lthumb 10.4322 -1.96698
rfemur -82.1364 -12.5632 22.5853
rtibia 120.518
rfoot -32.8344 9.94844
rtoes -20.327
lfemur -87.8251 6.66175 -26.0678
ltibia 115.907
lfoot -27.4358 -18.0036
ltoes -49.3454
667
root -0.138866 12.209 6.67725 18.7146 4.7017 1.62357
lowerback 50.3532 -0.434071 -1.66044
upperback 16.1577 -0.944242 1.31653
thorax -2.53667 -0.569493 2.52948
lowerneck -9.54891 -1.54589 -7.14392
upperneck 37.9569 -1.79177 4.0513
head 14.8692 -1.20302 2.72227
rclavicle 7.15625e-015 -1.00759e-014
rhumerus 22.4533 12.6003 -72.9249
rradius 47.4943
rwrist -1.77897
rhand -12.9732 -40.5115
rfingers 7.12502
rthumb 13.119 -70.0788
lclavicle 7.15625e-015 -1.00759e-014
lhumerus 24.7812 -17.7714 67.9056
lradius 49.5173
lwrist 13.45
lhand -15.4629 -31.7987
lfingers 7.12502
lthumb 10.7183 -2.09212
rfemur -83.2272 -12.97 22.6946
rtibia 122.396
rfoot -32.8366 9.9613
rtoes -21.3143
lfemur -89.1358 6.92623 -26.1821
ltibia 117.81
lfoot -27.0259 -18.1902
ltoes -49.442
668
root -0.156246 12.0149 6.67655 18.7333 4.89845 1.74433
lowerback 50.5639 -0.597814 -1.5391
upperback 16.205 -1.07284 1.26618
thorax -2.50592 -0.617856 2.46751
lowerneck -10.2141 -1.47076 -7.10136
upperneck 38.7503 -1.74535 4.29487
head 15.4165 -1.16162 2.8523
rclavicle 1.39149e-014 -1.33931e-014
rhumerus 22.6512 12.8642 -72.8924
rradius 47.9113
rwrist -0.547409
rhand -14.5857 -40.9267
rfingers 7.12502
rthumb 11.5643 -70.5876
lclavicle 1.39149e-014 -1.33931e-014
lhumerus 25.2006 -18.6067 66.9254
lradius 49.9022
lwrist 12.2173
lhand -15.563 -32.4822
lfingers 7.12502
lthumb 10.6217 -2.77061
rfemur -84.5723 -13.6707 22.9542
rtibia 124.247
rfoot -32.6878 10.2193
rtoes -20.772
lfemur -90.7083 6.93801 -26.3809
ltibia 119.649
lfoot -26.5886 -18.1152
ltoes -49.6695
669
root -0.175482 11.8237 6.67977 18.6339 5.01138 1.82655
lowerback 50.8769 -0.687922 -1.48298
upperback 16.2689 -1.14995 1.2141
thorax -2.46916 -0.646222 2.41483
lowerneck -10.5152 -1.4147 -7.06058
upperneck 39.095 -1.72566 4.47449
head 15.6625 -1.13255 2.9385
rclavicle 1.55052e-014 -1.44492e-014
rhumerus 22.8635 12.8196 -73.0858
rradius 48.2794
rwrist 2.06549
rhand -17.1012 -41.2121
rfingers 7.12502
rthumb 9.13771 -70.9941
lclavicle 1.55052e-014 -1.44492e-014
lhumerus 25.6364 -19.2977 66.1102
lradius 50.2165
lwrist 10.6346
lhand -16.2996 -33.5192
lfingers 7.12502
lthumb 9.91113 -3.77254
rfemur -85.7054 -14.349 23.2914
rtibia 126.035
rfoot -32.7917 10.4728
rtoes -20.3925
lfemur -92.0528 7.13092 -26.6803
ltibia 121.424
lfoot -26.3232 -17.8145
ltoes -49.9866
670
root -0.194873 11.6375 6.68829 18.3852 5.09751 1.83554
lowerback 51.3656 -0.758033 -1.40393
upperback 16.3198 -1.19464 1.17916
thorax -2.46655 -0.660079 2.35857
lowerneck -10.4152 -1.35584 -7.07437
upperneck 39.0124 -1.68093 4.57465
head 15.5921 -1.10372 2.98743
rclavicle 1.63003e-014 -3.83903e-014
rhumerus 23.0317 12.7217 -73.302
rradius 48.6225
rwrist 4.99513
rhand -19.2178 -41.4396
rfingers 7.12502
rthumb 7.0949 -71.3007
lclavicle 1.63003e-014 -3.83903e-014
lhumerus 26.0248 -19.7212 65.6232
lradius 50.4872
lwrist 8.88829
lhand -17.269 -34.2275
lfingers 7.12502
lthumb 8.97573 -4.43845
rfemur -86.5456 -15.0578 23.6953
rtibia 127.746
rfoot -33.0983 10.7037
rtoes -20.9402
lfemur -93.1245 7.50456 -27.002
ltibia 123.161
lfoot -26.1457 -17.4179
ltoes -50.0473
671
root -0.214296 11.4626 6.70035 17.9946 5.19938 1.76206
lowerback 51.9742 -0.832009 -1.26955
upperback 16.3929 -1.21362 1.19358
thorax -2.4502 -0.664299 2.32056
lowerneck -10.3783 -1.30438 -7.06012
upperneck 38.9885 -1.59446 4.52589
head 15.5628 -1.07183 2.97582
rclavicle -2.06736e-014 2.37796e-014
rhumerus 23.2556 12.7229 -73.3078
rradius 48.9889
rwrist 7.44492
rhand -17.9352 -41.9199
rfingers 7.12502
rthumb 8.33291 -71.7355
lclavicle -2.06736e-014 2.37796e-014
lhumerus 26.3529 -19.7974 65.5443
lradius 50.7569
lwrist 7.32431
lhand -18.0904 -35.1103
lfingers 7.12502
lthumb 8.18306 -5.28874
rfemur -87.0837 -15.8434 24.121
rtibia 129.346
rfoot -33.3589 11.0237
rtoes -21.464
lfemur -93.9715 8.0108 -27.2846
ltibia 124.841
lfoot -26.1176 -17.1128
ltoes -49.9934
672
root -0.23465 11.2867 6.71016 17.8323 5.33001 1.64893
lowerback 52.1595 -0.921221 -1.10428
upperback 16.5279 -1.23214 1.21838
thorax -2.32025 -0.669148 2.27754
lowerneck -10.237 -1.23752 -7.01887
upperneck 38.9404 -1.50244 4.48172
head 15.4951 -1.03366 2.96045
rclavicle -1.39149e-015 1.55301e-015
rhumerus 23.5632 12.7011 -73.3125
rradius 49.3044
rwrist 9.62804
rhand -21.6948 -42.0981
rfingers 7.12502
rthumb 4.70349 -72.0259
lclavicle -1.39149e-015 1.55301e-015
lhumerus 26.5558 -19.6594 65.7076
lradius 51.0758
lwrist 6.19807
lhand -18.5447 -36.0889
lfingers 7.12502
lthumb 7.74463 -6.25076
rfemur -87.9469 -16.6671 24.6556
rtibia 130.944
rfoot -33.4916 11.4101
rtoes -21.8541
lfemur -95.1955 8.49816 -27.5928
ltibia 126.513
lfoot -25.9878 -16.9494
ltoes -49.8048
673
root -0.256766 11.1179 6.71945 17.6524 5.46054 1.55535
lowerback 52.346 -0.980011 -0.99291
upperback 16.6571 -1.2392 1.25687
thorax -2.19555 -0.672013 2.26983
lowerneck -9.93161 -1.15606 -7.09095
upperneck 38.8598 -1.43449 4.60826
head 15.3759 -1.00132 3.03297
rclavicle -1.59028e-015 2.5842e-015
rhumerus 23.8892 12.6033 -73.4233
rradius 49.5441
rwrist 11.9184
rhand -22.2135 -42.5939
rfingers 7.12502
rthumb 4.20262 -72.5322
lclavicle -1.59028e-015 2.5842e-015
lhumerus 26.6821 -19.435 66.0065
lradius 51.4067
lwrist 5.69351
lhand -18.7162 -36.8838
lfingers 7.12502
lthumb 7.57912 -7.03961
rfemur -88.7811 -17.6265 25.1744
rtibia 132.504
rfoot -33.5891 11.9939
rtoes -22.1855
lfemur -96.3676 8.98439 -27.9433
ltibia 128.105
lfoot -25.7697 -16.7163
ltoes -49.6643
